<svg xmlns="http://www.w3.org/2000/svg" width="17.45" height="20.93" viewBox="0 0 17.45 20.93">
  <g id="ico_youtube" transform="translate(0 0)">
    <path id="Path_16" data-name="Path 16" d="M553.359,194.925h1.192v-3.2l1.388-4.516h-1.211l-.736,3.085h-.077l-.773-3.085h-1.2l1.418,4.659Z" transform="translate(-549.275 -187.206)" fill="#1a1a1a"/>
    <path id="Path_17" data-name="Path 17" d="M555.885,193.484a1.591,1.591,0,0,0,.417,1.155,1.477,1.477,0,0,0,1.112.429,1.524,1.524,0,0,0,1.133-.416,1.555,1.555,0,0,0,.413-1.148v-2.94a1.432,1.432,0,0,0-.42-1.065,1.474,1.474,0,0,0-1.077-.413,1.635,1.635,0,0,0-1.15.392,1.364,1.364,0,0,0-.428,1.054Zm1.089-2.995a.4.4,0,0,1,.122-.3.441.441,0,0,1,.315-.113.5.5,0,0,1,.34.113.387.387,0,0,1,.129.3v3.1a.5.5,0,0,1-.126.36.459.459,0,0,1-.343.131.407.407,0,0,1-.322-.128.522.522,0,0,1-.115-.363Z" transform="translate(-549.275 -187.206)" fill="#1a1a1a"/>
    <path id="Path_18" data-name="Path 18" d="M560.6,195.008a1.256,1.256,0,0,0,.616-.182,2.335,2.335,0,0,0,.609-.53v.629h1.059v-5.7h-1.059v4.322a1.474,1.474,0,0,1-.328.307.57.57,0,0,1-.295.119.246.246,0,0,1-.215-.089.5.5,0,0,1-.066-.293V189.23h-1.059v4.76a1.281,1.281,0,0,0,.187.763A.639.639,0,0,0,560.6,195.008Z" transform="translate(-549.275 -187.206)" fill="#1a1a1a"/>
    <path id="Path_19" data-name="Path 19" d="M559.837,201.148a.47.47,0,0,0-.222.057.756.756,0,0,0-.22.173v3.548a.918.918,0,0,0,.25.2.559.559,0,0,0,.257.061.331.331,0,0,0,.284-.12.638.638,0,0,0,.093-.392v-2.94a.715.715,0,0,0-.113-.437A.387.387,0,0,0,559.837,201.148Z" transform="translate(-549.275 -187.206)" fill="#1a1a1a"/>
    <path id="Path_20" data-name="Path 20" d="M563.729,201.17a.416.416,0,0,0-.363.154.921.921,0,0,0-.109.514v.576h.935v-.576a.9.9,0,0,0-.111-.514A.4.4,0,0,0,563.729,201.17Z" transform="translate(-549.275 -187.206)" fill="#1a1a1a"/>
    <path id="Path_21" data-name="Path 21" d="M566.608,198.993a2.506,2.506,0,0,0-2.521-2.49q-2.83-.116-5.781-.117h-.615q-2.947,0-5.781.117a2.506,2.506,0,0,0-2.519,2.49q-.126,1.637-.116,3.268-.008,1.634.116,3.269a2.506,2.506,0,0,0,2.519,2.49q2.978.126,6.089.116,3.106.006,6.088-.116a2.507,2.507,0,0,0,2.521-2.49c.082-1.091.119-2.18.117-3.269S566.69,200.084,566.608,198.993Zm-13.556,7.018h-1.193v-6.6h-1.233v-1.121h3.659v1.121h-1.233Zm4.242,0h-1.059v-.628a2.345,2.345,0,0,1-.609.529,1.25,1.25,0,0,1-.616.181.646.646,0,0,1-.553-.253,1.3,1.3,0,0,1-.186-.764v-4.76h1.059v4.365a.5.5,0,0,0,.067.293.248.248,0,0,0,.215.09.588.588,0,0,0,.3-.119,1.488,1.488,0,0,0,.327-.306v-4.323h1.059Zm4.074-1.18a1.5,1.5,0,0,1-.248.929.857.857,0,0,1-.719.323,1.184,1.184,0,0,1-.554-.126,1.405,1.405,0,0,1-.452-.385v.439h-1.069v-7.72H559.4v2.485a1.643,1.643,0,0,1,.454-.4.984.984,0,0,1,.488-.137.9.9,0,0,1,.767.365,1.8,1.8,0,0,1,.264,1.063Zm3.914-1.534h-2.025v1.074a1.277,1.277,0,0,0,.1.623.379.379,0,0,0,.357.174.423.423,0,0,0,.368-.148,1.28,1.28,0,0,0,.105-.649v-.4h1.09v.427a1.919,1.919,0,0,1-.4,1.32,1.518,1.518,0,0,1-1.189.442,1.408,1.408,0,0,1-1.119-.469,1.9,1.9,0,0,1-.408-1.293v-2.556a1.669,1.669,0,0,1,.447-1.207,1.544,1.544,0,0,1,1.162-.467,1.422,1.422,0,0,1,1.115.432,1.792,1.792,0,0,1,.391,1.242Z" transform="translate(-549.275 -187.206)" fill="#1a1a1a"/>
  </g>
</svg>
