<svg xmlns="http://www.w3.org/2000/svg" width="19.298" height="15.684" viewBox="0 0 19.298 15.684">
  <g id="ico_twitter" transform="translate(0 0)">
    <path id="ico_twitter-2" data-name="ico_twitter" d="M136.232,48.015a7.888,7.888,0,0,1-2.274.623,3.96,3.96,0,0,0,1.741-2.19,7.929,7.929,0,0,1-2.514.961,3.96,3.96,0,0,0-6.849,2.709,4,4,0,0,0,.1.9,11.238,11.238,0,0,1-8.16-4.137,3.964,3.964,0,0,0,1.225,5.286,3.955,3.955,0,0,1-1.793-.495v.05a3.961,3.961,0,0,0,3.175,3.882,3.983,3.983,0,0,1-1.043.139,3.878,3.878,0,0,1-.744-.072,3.96,3.96,0,0,0,3.7,2.75,7.943,7.943,0,0,1-4.917,1.695,8.185,8.185,0,0,1-.945-.055,11.26,11.26,0,0,0,17.334-9.486c0-.172,0-.343-.011-.513A8.05,8.05,0,0,0,136.232,48.015Z" transform="translate(-116.934 -46.158)"/>
  </g>
</svg>
